<svg width="1440" height="1692" viewBox="0 0 1440 1692" fill="none" xmlns="http://www.w3.org/2000/svg">
<g filter="url(#filter0_d)">
<path d="M1440 0H0V1608C0 1608 239 1728.08 466.5 1494.48C772.439 1180.33 1092.83 1668.46 1213 1578.05L1440 1494.48V0Z" fill="#8DB7F7"/>
</g>
<g filter="url(#filter1_d)">
<path d="M0 426.5C164.605 425.502 369.811 357.65 502.302 265.003C628.627 176.669 681.054 69.869 711.511 0H1440L1439 385.278L1440 800V1600C1063.6 1728.4 883.5 1529.17 840.5 1413.5C801.28 1308 681 1071.9 479 987.5C277 903.1 75.5 1002.33 0 1062.5V800V426.5Z" fill="#E8F0FF"/>
</g>
<g filter="url(#filter2_i)">
<path d="M560.611 800C559.5 698.5 618 459.5 951.839 443.379C1245.73 429.186 1347.5 239.5 1375.54 165.899C1384.37 147.933 1409.62 76.5 1440 76.5V800V1443C1211 1593 1037 1552 933 1286C829 1020 562.957 1014.5 560.611 800Z" fill="#C8DBFB"/>
</g>
<g opacity="0.5" filter="url(#filter3_i)">
<path d="M1064.04 799.926C1065.24 750.941 1119.17 693.716 1216.96 689.725C1314.75 685.733 1366.46 649.479 1380.1 631.851L1440 564V799.926V1360.25C1346.04 1407.83 1098.87 1305.02 1216.96 1157.81C1372.38 964.067 1059.91 968.372 1064.04 799.926Z" fill="#5193F4"/>
</g>
<defs>
<filter id="filter0_d" x="-50" y="-50" width="1540" height="1738.86" filterUnits="userSpaceOnUse" color-interpolation-filters="sRGB">
<feFlood flood-opacity="0" result="BackgroundImageFix"/>
<feColorMatrix in="SourceAlpha" type="matrix" values="0 0 0 0 0 0 0 0 0 0 0 0 0 0 0 0 0 0 127 0"/>
<feOffset/>
<feGaussianBlur stdDeviation="25"/>
<feColorMatrix type="matrix" values="0 0 0 0 0 0 0 0 0 0 0 0 0 0 0 0 0 0 0.25 0"/>
<feBlend mode="normal" in2="BackgroundImageFix" result="effect1_dropShadow"/>
<feBlend mode="normal" in="SourceGraphic" in2="effect1_dropShadow" result="shape"/>
</filter>
<filter id="filter1_d" x="-50" y="-50" width="1540" height="1741.6" filterUnits="userSpaceOnUse" color-interpolation-filters="sRGB">
<feFlood flood-opacity="0" result="BackgroundImageFix"/>
<feColorMatrix in="SourceAlpha" type="matrix" values="0 0 0 0 0 0 0 0 0 0 0 0 0 0 0 0 0 0 127 0"/>
<feOffset/>
<feGaussianBlur stdDeviation="25"/>
<feColorMatrix type="matrix" values="0 0 0 0 0 0 0 0 0 0 0 0 0 0 0 0 0 0 0.25 0"/>
<feBlend mode="normal" in2="BackgroundImageFix" result="effect1_dropShadow"/>
<feBlend mode="normal" in="SourceGraphic" in2="effect1_dropShadow" result="shape"/>
</filter>
<filter id="filter2_i" x="560.595" y="76.5" width="879.405" height="1452.89" filterUnits="userSpaceOnUse" color-interpolation-filters="sRGB">
<feFlood flood-opacity="0" result="BackgroundImageFix"/>
<feBlend mode="normal" in="SourceGraphic" in2="BackgroundImageFix" result="shape"/>
<feColorMatrix in="SourceAlpha" type="matrix" values="0 0 0 0 0 0 0 0 0 0 0 0 0 0 0 0 0 0 127 0" result="hardAlpha"/>
<feOffset/>
<feGaussianBlur stdDeviation="25"/>
<feComposite in2="hardAlpha" operator="arithmetic" k2="-1" k3="1"/>
<feColorMatrix type="matrix" values="0 0 0 0 0 0 0 0 0 0 0 0 0 0 0 0 0 0 0.25 0"/>
<feBlend mode="normal" in2="shape" result="effect1_innerShadow"/>
</filter>
<filter id="filter3_i" x="1064" y="564" width="376" height="808" filterUnits="userSpaceOnUse" color-interpolation-filters="sRGB">
<feFlood flood-opacity="0" result="BackgroundImageFix"/>
<feBlend mode="normal" in="SourceGraphic" in2="BackgroundImageFix" result="shape"/>
<feColorMatrix in="SourceAlpha" type="matrix" values="0 0 0 0 0 0 0 0 0 0 0 0 0 0 0 0 0 0 127 0" result="hardAlpha"/>
<feOffset/>
<feGaussianBlur stdDeviation="25"/>
<feComposite in2="hardAlpha" operator="arithmetic" k2="-1" k3="1"/>
<feColorMatrix type="matrix" values="0 0 0 0 0 0 0 0 0 0 0 0 0 0 0 0 0 0 0.5 0"/>
<feBlend mode="normal" in2="shape" result="effect1_innerShadow"/>
</filter>
</defs>
</svg>
